<svg width="229" height="68" viewBox="0 0 229 68" fill="#fff" xmlns="http://www.w3.org/2000/svg">
<path d="M31.7893 40.7568C29.2953 40.7568 27.5359 39.6258 26.5113 37.3638C25.5059 35.1018 25.0033 32.3178 25.0033 29.0118C25.0033 27.2332 25.2353 25.5222 25.6993 23.8788C26.1633 22.2355 26.9076 20.8822 27.9323 19.8188C28.9763 18.7362 30.2909 18.1948 31.8763 18.1948C33.0943 18.1948 34.1576 18.5718 35.0663 19.3258C35.9943 20.0798 36.6999 21.0658 37.1833 22.2838C37.6859 23.4825 37.9373 24.7392 37.9373 26.0538L33.8193 26.2568C33.8193 25.3868 33.6743 24.4008 33.3843 23.2988C33.0943 22.1775 32.5143 21.6168 31.6443 21.6168C30.7356 21.6168 30.1073 22.3418 29.7593 23.7918C29.4113 25.2418 29.2373 26.9818 29.2373 29.0118C29.2373 31.5252 29.4306 33.5455 29.8173 35.0728C30.2039 36.5808 30.9483 37.3348 32.0503 37.3348C32.8236 37.3348 33.3746 36.8805 33.7033 35.9718C34.0319 35.0438 34.2446 33.9225 34.3413 32.6078L37.9663 32.9558C37.9663 34.3478 37.7343 35.6432 37.2703 36.8418C36.8063 38.0212 36.1103 38.9685 35.1823 39.6838C34.2543 40.3992 33.1233 40.7568 31.7893 40.7568ZM42.6776 40.3508L47.2596 18.8618L53.3206 18.6008L58.0186 40.1768L53.3786 40.3508L52.5956 35.6818H47.4046L46.4766 40.3508H42.6776ZM48.1876 32.2018H51.8126L49.8116 21.7908L48.1876 32.2018ZM63.6956 18.6008H68.5676C71.1969 18.6008 73.1109 19.1132 74.3096 20.1378C75.5083 21.1625 76.1076 22.5158 76.1076 24.1978C76.1076 25.2612 75.8949 26.1988 75.4696 27.0108C75.0636 27.8228 74.4933 28.4125 73.7586 28.7798C74.6866 29.2632 75.4213 29.9108 75.9626 30.7228C76.5039 31.5155 76.7746 32.6948 76.7746 34.2608C76.7746 38.3208 73.5749 40.3508 67.1756 40.3508H63.6956V18.6008ZM68.8286 27.4458C69.9499 27.4458 70.7813 27.2622 71.3226 26.8948C71.8833 26.5275 72.1636 25.7735 72.1636 24.6328C72.1636 23.6275 71.8446 22.9412 71.2066 22.5738C70.5879 22.1872 69.7373 21.9938 68.6546 21.9938H67.8136V27.4458H68.8286ZM68.7416 36.9578C70.1336 36.9578 71.1389 36.6195 71.7576 35.9428C72.3763 35.2468 72.6856 34.4928 72.6856 33.6808C72.6856 32.4242 72.3473 31.5928 71.6706 31.1868C71.0133 30.7615 70.0853 30.5488 68.8866 30.5488H67.9586V36.9578H68.7416ZM83.0033 40.3508V18.9488L87.2373 18.6008V36.9578H94.3713L93.9363 40.3508H83.0033ZM99.932 40.3508V18.6008H110.981L110.633 21.9938H104.195V27.1848H108.777L108.748 30.8388H104.195V36.9578H111.213L110.865 40.3508H99.932ZM123.202 40.7568C120.708 40.7568 118.948 39.6258 117.924 37.3638C116.918 35.1018 116.416 32.3178 116.416 29.0118C116.416 27.2332 116.648 25.5222 117.112 23.8788C117.576 22.2355 118.32 20.8822 119.345 19.8188C120.389 18.7362 121.703 18.1948 123.289 18.1948C124.507 18.1948 125.57 18.5718 126.479 19.3258C127.407 20.0798 128.112 21.0658 128.596 22.2838C129.098 23.4825 129.35 24.7392 129.35 26.0538L125.232 26.2568C125.232 25.3868 125.087 24.4008 124.797 23.2988C124.507 22.1775 123.927 21.6168 123.057 21.6168C122.148 21.6168 121.52 22.3418 121.172 23.7918C120.824 25.2418 120.65 26.9818 120.65 29.0118C120.65 31.5252 120.843 33.5455 121.23 35.0728C121.616 36.5808 122.361 37.3348 123.463 37.3348C124.236 37.3348 124.787 36.8805 125.116 35.9718C125.444 35.0438 125.657 33.9225 125.754 32.6078L129.379 32.9558C129.379 34.3478 129.147 35.6432 128.683 36.8418C128.219 38.0212 127.523 38.9685 126.595 39.6838C125.667 40.3992 124.536 40.7568 123.202 40.7568ZM141.659 30.8098H140.006V40.1768L135.772 40.5248V18.7748L140.934 18.6008C143.428 18.6008 145.381 19.1035 146.792 20.1088C148.203 21.0948 148.909 22.6125 148.909 24.6618C148.909 26.0152 148.638 27.1268 148.097 27.9968C147.575 28.8668 146.811 29.5918 145.806 30.1718L147.749 34.8988L149.721 39.5968L145.545 40.7278L141.659 30.8098ZM141.456 27.6778C142.461 27.6778 143.244 27.4748 143.805 27.0688C144.385 26.6435 144.675 25.8508 144.675 24.6908C144.675 22.8928 143.786 21.9938 142.007 21.9938H140.006V27.6778H141.456ZM153.822 40.3508L158.404 18.8618L164.465 18.6008L169.163 40.1768L164.523 40.3508L163.74 35.6818H158.549L157.621 40.3508H153.822ZM159.332 32.2018H162.957L160.956 21.7908L159.332 32.2018ZM174.84 40.5248V18.6008H185.889L185.541 22.0228H179.103V27.7068H183.656V31.3028H179.103V40.1768L174.84 40.5248ZM194.327 40.5248V21.9938H189.89L190.209 18.6008H202.969L202.621 21.9938H198.561V40.1768L194.327 40.5248Z" fill="white"/>
<path d="M26.5113 37.3638L25.5974 37.77L25.6004 37.7765L26.5113 37.3638ZM25.6993 23.8788L26.6616 24.1506L26.6616 24.1506L25.6993 23.8788ZM27.9323 19.8188L27.2124 19.1247L27.2122 19.1249L27.9323 19.8188ZM35.0663 19.3258L34.4277 20.0954L34.4357 20.1019L35.0663 19.3258ZM37.1833 22.2838L36.2538 22.6527L36.2573 22.6617L36.2611 22.6706L37.1833 22.2838ZM37.9373 26.0538L37.9865 27.0526L38.9373 27.0057V26.0538H37.9373ZM33.8193 26.2568H32.8193V27.3073L33.8685 27.2556L33.8193 26.2568ZM33.3843 23.2988L32.4161 23.5492L32.4172 23.5533L33.3843 23.2988ZM29.7593 23.7918L28.7869 23.5585L28.7869 23.5585L29.7593 23.7918ZM29.8173 35.0728L28.8478 35.3183L28.8486 35.3212L29.8173 35.0728ZM33.7033 35.9718L34.6437 36.312L34.6459 36.3057L33.7033 35.9718ZM34.3413 32.6078L34.4368 31.6124L33.4189 31.5147L33.344 32.5345L34.3413 32.6078ZM37.9663 32.9558H38.9663V32.0472L38.0618 31.9604L37.9663 32.9558ZM37.2703 36.8418L38.2008 37.208L38.2028 37.2028L37.2703 36.8418ZM35.1823 39.6838L35.7928 40.4758L35.7928 40.4758L35.1823 39.6838ZM31.7893 39.7568C30.6966 39.7568 29.8296 39.5107 29.14 39.0674C28.4507 38.6243 27.8701 37.94 27.4222 36.9512L25.6004 37.7765C26.1771 39.0496 26.9885 40.0619 28.0585 40.7498C29.1283 41.4375 30.3879 41.7568 31.7893 41.7568V39.7568ZM27.4251 36.9577C26.4922 34.8588 26.0033 32.2224 26.0033 29.0118H24.0033C24.0033 32.4132 24.5196 35.3449 25.5975 37.77L27.4251 36.9577ZM26.0033 29.0118C26.0033 27.3212 26.2236 25.7019 26.6616 24.1506L24.7369 23.6071C24.2469 25.3425 24.0033 27.1451 24.0033 29.0118H26.0033ZM26.6616 24.1506C27.0879 22.6408 27.7587 21.4401 28.6523 20.5127L27.2122 19.1249C26.0565 20.3242 25.2386 21.8302 24.7369 23.6071L26.6616 24.1506ZM28.6521 20.513C29.4965 19.6373 30.546 19.1948 31.8763 19.1948V17.1948C30.0358 17.1948 28.456 17.8351 27.2124 19.1247L28.6521 20.513ZM31.8763 19.1948C32.869 19.1948 33.7046 19.4953 34.4277 20.0954L35.7048 18.5563C34.6106 17.6483 33.3195 17.1948 31.8763 17.1948V19.1948ZM34.4357 20.1019C35.2183 20.7379 35.8274 21.5781 36.2538 22.6527L38.1128 21.915C37.5725 20.5535 36.7702 19.4218 35.6969 18.5497L34.4357 20.1019ZM36.2611 22.6706C36.7118 23.7453 36.9373 24.8704 36.9373 26.0538H38.9373C38.9373 24.6079 38.6601 23.2197 38.1055 21.8971L36.2611 22.6706ZM37.888 25.055L33.77 25.258L33.8685 27.2556L37.9865 27.0526L37.888 25.055ZM34.8193 26.2568C34.8193 25.2792 34.6569 24.2053 34.3513 23.0443L32.4172 23.5533C32.6917 24.5963 32.8193 25.4945 32.8193 26.2568H34.8193ZM34.3524 23.0484C34.1803 22.383 33.8949 21.7709 33.4268 21.3183C32.9348 20.8428 32.3162 20.6168 31.6443 20.6168V22.6168C31.8423 22.6168 31.9487 22.6712 32.0367 22.7563C32.1486 22.8645 32.2982 23.0934 32.4161 23.5492L34.3524 23.0484ZM31.6443 20.6168C30.882 20.6168 30.2279 20.9379 29.7358 21.5056C29.2743 22.0382 28.9795 22.7558 28.7869 23.5585L30.7316 24.0252C30.887 23.3779 31.0804 23.008 31.2472 22.8155C31.3835 22.6583 31.4979 22.6168 31.6443 22.6168V20.6168ZM28.7869 23.5585C28.4153 25.1067 28.2373 26.9294 28.2373 29.0118H30.2373C30.2373 27.0343 30.4072 25.3769 30.7316 24.0252L28.7869 23.5585ZM28.2373 29.0118C28.2373 31.5651 28.4325 33.6777 28.8478 35.3183L30.7867 34.8274C30.4287 33.4132 30.2373 31.4852 30.2373 29.0118H28.2373ZM28.8486 35.3212C29.0666 36.1715 29.4123 36.9233 29.9539 37.4719C30.5222 38.0476 31.2438 38.3348 32.0503 38.3348V36.3348C31.7547 36.3348 31.5532 36.2451 31.3772 36.0668C31.1744 35.8614 30.9546 35.4821 30.7859 34.8245L28.8486 35.3212ZM32.0503 38.3348C32.6484 38.3348 33.2098 38.1531 33.6797 37.7656C34.1339 37.3911 34.4391 36.8774 34.6436 36.312L32.7629 35.6317C32.6387 35.9749 32.5042 36.1427 32.4073 36.2225C32.3262 36.2894 32.2254 36.3348 32.0503 36.3348V38.3348ZM34.6459 36.3057C35.0124 35.2708 35.2374 34.0567 35.3386 32.6812L33.344 32.5345C33.2518 33.7883 33.0514 34.8169 32.7606 35.638L34.6459 36.3057ZM34.2457 33.6033L37.8707 33.9513L38.0618 31.9604L34.4368 31.6124L34.2457 33.6033ZM36.9663 32.9558C36.9663 34.2347 36.7536 35.4065 36.3377 36.4808L38.2028 37.2028C38.715 35.8798 38.9663 34.461 38.9663 32.9558H36.9663ZM36.3397 36.4757C35.9363 37.501 35.3449 38.2959 34.5718 38.8918L35.7928 40.4758C36.8756 39.6411 37.6762 38.5414 38.2008 37.208L36.3397 36.4757ZM34.5718 38.8918C33.8425 39.4539 32.9345 39.7568 31.7893 39.7568V41.7568C33.3121 41.7568 34.666 41.3444 35.7928 40.4758L34.5718 38.8918ZM42.6776 40.3508L41.6996 40.1423L41.4419 41.3508H42.6776V40.3508ZM47.2596 18.8618L47.2166 17.8628L46.4431 17.8961L46.2816 18.6533L47.2596 18.8618ZM53.3206 18.6008L54.2977 18.3881L54.1186 17.5655L53.2776 17.6018L53.3206 18.6008ZM58.0186 40.1768L58.0561 41.1761L59.2499 41.1314L58.9957 39.9641L58.0186 40.1768ZM53.3786 40.3508L52.3924 40.5162L52.5378 41.3831L53.4161 41.3501L53.3786 40.3508ZM52.5956 35.6818L53.5819 35.5164L53.4419 34.6818H52.5956V35.6818ZM47.4046 35.6818V34.6818H46.5838L46.4238 35.4869L47.4046 35.6818ZM46.4766 40.3508V41.3508H47.2974L47.4574 40.5458L46.4766 40.3508ZM48.1876 32.2018L47.1996 32.0477L47.0195 33.2018H48.1876V32.2018ZM51.8126 32.2018V33.2018H53.0231L52.7947 32.0131L51.8126 32.2018ZM49.8116 21.7908L50.7937 21.6021L48.8236 21.6367L49.8116 21.7908ZM43.6556 40.5594L48.2376 19.0704L46.2816 18.6533L41.6996 40.1423L43.6556 40.5594ZM47.3027 19.8609L53.3637 19.5999L53.2776 17.6018L47.2166 17.8628L47.3027 19.8609ZM52.3435 18.8136L57.0415 40.3896L58.9957 39.9641L54.2977 18.3881L52.3435 18.8136ZM57.9812 39.1775L53.3412 39.3515L53.4161 41.3501L58.0561 41.1761L57.9812 39.1775ZM54.3649 40.1854L53.5819 35.5164L51.6094 35.8472L52.3924 40.5162L54.3649 40.1854ZM52.5956 34.6818H47.4046V36.6818H52.5956V34.6818ZM46.4238 35.4869L45.4958 40.1559L47.4574 40.5458L48.3854 35.8768L46.4238 35.4869ZM46.4766 39.3508H42.6776V41.3508H46.4766V39.3508ZM48.1876 33.2018H51.8126V31.2018H48.1876V33.2018ZM52.7947 32.0131L50.7937 21.6021L48.8296 21.9796L50.8306 32.3906L52.7947 32.0131ZM48.8236 21.6367L47.1996 32.0477L49.1757 32.356L50.7997 21.945L48.8236 21.6367ZM63.6956 18.6008V17.6008H62.6956V18.6008H63.6956ZM74.3096 20.1378L73.6598 20.898L73.6598 20.898L74.3096 20.1378ZM75.4696 27.0108L74.5838 26.5468L74.5794 26.5552L74.5752 26.5636L75.4696 27.0108ZM73.7586 28.7798L73.3114 27.8854L71.5589 28.7617L73.2967 29.6667L73.7586 28.7798ZM75.9626 30.7228L75.1305 31.2776L75.1368 31.2868L75.9626 30.7228ZM63.6956 40.3508H62.6956V41.3508H63.6956V40.3508ZM71.3226 26.8948L70.7746 26.0584L70.7678 26.0628L70.7611 26.0674L71.3226 26.8948ZM71.2066 22.5738L70.6766 23.4218L70.692 23.4314L70.7076 23.4405L71.2066 22.5738ZM67.8136 21.9938V20.9938H66.8136V21.9938H67.8136ZM67.8136 27.4458H66.8136V28.4458H67.8136V27.4458ZM71.7576 35.9428L72.4957 36.6177L72.505 36.6072L71.7576 35.9428ZM71.6706 31.1868L71.1274 32.0264L71.1416 32.0356L71.1561 32.0443L71.6706 31.1868ZM67.9586 30.5488V29.5488H66.9586V30.5488H67.9586ZM67.9586 36.9578H66.9586V37.9578H67.9586V36.9578ZM63.6956 19.6008H68.5676V17.6008H63.6956V19.6008ZM68.5676 19.6008C71.1057 19.6008 72.7292 20.1024 73.6598 20.898L74.9594 19.3777C73.4927 18.1239 71.2882 17.6008 68.5676 17.6008V19.6008ZM73.6598 20.898C74.6199 21.7187 75.1076 22.7861 75.1076 24.1978H77.1076C77.1076 22.2456 76.3966 20.6063 74.9594 19.3777L73.6598 20.898ZM75.1076 24.1978C75.1076 25.1255 74.9229 25.8993 74.5838 26.5468L76.3554 27.4748C76.8669 26.4983 77.1076 25.3968 77.1076 24.1978H75.1076ZM74.5752 26.5636C74.2552 27.2036 73.8321 27.625 73.3114 27.8854L74.2058 29.6743C75.1544 29.1999 75.872 28.4421 76.364 27.458L74.5752 26.5636ZM73.2967 29.6667C74.0864 30.0781 74.6894 30.6157 75.1306 31.2775L76.7947 30.1681C76.1532 29.2059 75.2868 28.4483 74.2205 27.8929L73.2967 29.6667ZM75.1368 31.2868C75.5134 31.8383 75.7746 32.7805 75.7746 34.2608H77.7746C77.7746 32.6091 77.4944 31.1927 76.7884 30.1589L75.1368 31.2868ZM75.7746 34.2608C75.7746 35.9778 75.1259 37.1675 73.8391 37.9839C72.4754 38.8492 70.3018 39.3508 67.1756 39.3508V41.3508C70.4488 41.3508 73.0747 40.8375 74.9106 39.6727C76.8235 38.4591 77.7746 36.6039 77.7746 34.2608H75.7746ZM67.1756 39.3508H63.6956V41.3508H67.1756V39.3508ZM64.6956 40.3508V18.6008H62.6956V40.3508H64.6956ZM68.8286 28.4458C70.023 28.4458 71.0963 28.2569 71.8841 27.7223L70.7611 26.0674C70.4662 26.2674 69.8769 26.4458 68.8286 26.4458V28.4458ZM71.8706 27.7313C72.8668 27.0787 73.1636 25.8728 73.1636 24.6328H71.1636C71.1636 25.6742 70.8998 25.9763 70.7746 26.0584L71.8706 27.7313ZM73.1636 24.6328C73.1636 23.4174 72.7632 22.3161 71.7056 21.7072L70.7076 23.4405C70.926 23.5662 71.1636 23.8376 71.1636 24.6328H73.1636ZM71.7366 21.7258C70.8998 21.2028 69.8398 20.9938 68.6546 20.9938V22.9938C69.6348 22.9938 70.2761 23.1715 70.6766 23.4218L71.7366 21.7258ZM68.6546 20.9938H67.8136V22.9938H68.6546V20.9938ZM66.8136 21.9938V27.4458H68.8136V21.9938H66.8136ZM67.8136 28.4458H68.8286V26.4458H67.8136V28.4458ZM68.7416 37.9578C70.2693 37.9578 71.6078 37.5886 72.4956 36.6176L71.0196 35.2681C70.67 35.6504 69.998 35.9578 68.7416 35.9578V37.9578ZM72.505 36.6072C73.2609 35.7568 73.6856 34.7736 73.6856 33.6808H71.6856C71.6856 34.2121 71.4916 34.7369 71.0102 35.2785L72.505 36.6072ZM73.6856 33.6808C73.6856 32.2919 73.3124 31.0057 72.1851 30.3293L71.1561 32.0443C71.3822 32.1799 71.6856 32.5564 71.6856 33.6808H73.6856ZM72.2139 30.3473C71.3301 29.7754 70.1831 29.5488 68.8866 29.5488V31.5488C69.9875 31.5488 70.6965 31.7476 71.1274 32.0264L72.2139 30.3473ZM68.8866 29.5488H67.9586V31.5488H68.8866V29.5488ZM66.9586 30.5488V36.9578H68.9586V30.5488H66.9586ZM67.9586 37.9578H68.7416V35.9578H67.9586V37.9578ZM83.0033 40.3508H82.0033V41.3508H83.0033V40.3508ZM83.0033 18.9488L82.9213 17.9522L82.0033 18.0276V18.9488H83.0033ZM87.2373 18.6008H88.2373V17.5153L87.1553 17.6042L87.2373 18.6008ZM87.2373 36.9578H86.2373V37.9578H87.2373V36.9578ZM94.3713 36.9578L95.3631 37.085L95.5077 35.9578H94.3713V36.9578ZM93.9363 40.3508V41.3508H94.8162L94.9281 40.478L93.9363 40.3508ZM84.0033 40.3508V18.9488H82.0033V40.3508H84.0033ZM83.0852 19.9455L87.3192 19.5975L87.1553 17.6042L82.9213 17.9522L83.0852 19.9455ZM86.2373 18.6008V36.9578H88.2373V18.6008H86.2373ZM87.2373 37.9578H94.3713V35.9578H87.2373V37.9578ZM93.3794 36.8307L92.9444 40.2237L94.9281 40.478L95.3631 37.085L93.3794 36.8307ZM93.9363 39.3508H83.0033V41.3508H93.9363V39.3508ZM99.932 40.3508H98.932V41.3508H99.932V40.3508ZM99.932 18.6008V17.6008H98.932V18.6008H99.932ZM110.981 18.6008L111.976 18.7029L112.089 17.6008H110.981V18.6008ZM110.633 21.9938V22.9938H111.536L111.628 22.0959L110.633 21.9938ZM104.195 21.9938V20.9938H103.195V21.9938H104.195ZM104.195 27.1848H103.195V28.1848H104.195V27.1848ZM108.777 27.1848L109.777 27.1928L109.785 26.1848H108.777V27.1848ZM108.748 30.8388V31.8388H109.74L109.748 30.8468L108.748 30.8388ZM104.195 30.8388V29.8388H103.195V30.8388H104.195ZM104.195 36.9578H103.195V37.9578H104.195V36.9578ZM111.213 36.9578L112.208 37.0599L112.321 35.9578H111.213V36.9578ZM110.865 40.3508V41.3508H111.768L111.86 40.4529L110.865 40.3508ZM100.932 40.3508V18.6008H98.932V40.3508H100.932ZM99.932 19.6008H110.981V17.6008H99.932V19.6008ZM109.986 18.4988L109.638 21.8918L111.628 22.0959L111.976 18.7029L109.986 18.4988ZM110.633 20.9938H104.195V22.9938H110.633V20.9938ZM103.195 21.9938V27.1848H105.195V21.9938H103.195ZM104.195 28.1848H108.777V26.1848H104.195V28.1848ZM107.777 27.1769L107.748 30.8309L109.748 30.8468L109.777 27.1928L107.777 27.1769ZM108.748 29.8388H104.195V31.8388H108.748V29.8388ZM103.195 30.8388V36.9578H105.195V30.8388H103.195ZM104.195 37.9578H111.213V35.9578H104.195V37.9578ZM110.218 36.8558L109.87 40.2488L111.86 40.4529L112.208 37.0599L110.218 36.8558ZM110.865 39.3508H99.932V41.3508H110.865V39.3508ZM117.924 37.3638L117.01 37.77L117.013 37.7765L117.924 37.3638ZM117.112 23.8788L118.074 24.1506L118.074 24.1506L117.112 23.8788ZM119.345 19.8188L118.625 19.1247L118.624 19.1249L119.345 19.8188ZM126.479 19.3258L125.84 20.0954L125.848 20.1019L126.479 19.3258ZM128.596 22.2838L127.666 22.6527L127.67 22.6617L127.673 22.6706L128.596 22.2838ZM129.35 26.0538L129.399 27.0526L130.35 27.0057V26.0538H129.35ZM125.232 26.2568H124.232V27.3073L125.281 27.2556L125.232 26.2568ZM124.797 23.2988L123.828 23.5492L123.829 23.5533L124.797 23.2988ZM121.172 23.7918L120.199 23.5585L120.199 23.5585L121.172 23.7918ZM121.23 35.0728L120.26 35.3183L120.261 35.3212L121.23 35.0728ZM125.116 35.9718L126.056 36.312L126.058 36.3057L125.116 35.9718ZM125.754 32.6078L125.849 31.6124L124.831 31.5147L124.756 32.5345L125.754 32.6078ZM129.379 32.9558H130.379V32.0472L129.474 31.9604L129.379 32.9558ZM128.683 36.8418L129.613 37.208L129.615 37.2028L128.683 36.8418ZM126.595 39.6838L127.205 40.4758L127.205 40.4758L126.595 39.6838ZM123.202 39.7568C122.109 39.7568 121.242 39.5107 120.552 39.0674C119.863 38.6243 119.282 37.94 118.834 36.9512L117.013 37.7765C117.589 39.0496 118.401 40.0619 119.471 40.7498C120.541 41.4375 121.8 41.7568 123.202 41.7568V39.7568ZM118.837 36.9577C117.905 34.8588 117.416 32.2224 117.416 29.0118H115.416C115.416 32.4132 115.932 35.3449 117.01 37.77L118.837 36.9577ZM117.416 29.0118C117.416 27.3212 117.636 25.7019 118.074 24.1506L116.149 23.6071C115.659 25.3425 115.416 27.1451 115.416 29.0118H117.416ZM118.074 24.1506C118.5 22.6408 119.171 21.4401 120.065 20.5127L118.624 19.1249C117.469 20.3242 116.651 21.8302 116.149 23.6071L118.074 24.1506ZM120.064 20.513C120.909 19.6373 121.958 19.1948 123.289 19.1948V17.1948C121.448 17.1948 119.868 17.8351 118.625 19.1247L120.064 20.513ZM123.289 19.1948C124.281 19.1948 125.117 19.4953 125.84 20.0954L127.117 18.5563C126.023 17.6483 124.732 17.1948 123.289 17.1948V19.1948ZM125.848 20.1019C126.631 20.7379 127.24 21.5781 127.666 22.6527L129.525 21.915C128.985 20.5535 128.182 19.4218 127.109 18.5497L125.848 20.1019ZM127.673 22.6706C128.124 23.7453 128.35 24.8704 128.35 26.0538H130.35C130.35 24.6079 130.072 23.2197 129.518 21.8971L127.673 22.6706ZM129.3 25.055L125.182 25.258L125.281 27.2556L129.399 27.0526L129.3 25.055ZM126.232 26.2568C126.232 25.2792 126.069 24.2053 125.764 23.0443L123.829 23.5533C124.104 24.5963 124.232 25.4945 124.232 26.2568H126.232ZM125.765 23.0484C125.593 22.383 125.307 21.7709 124.839 21.3183C124.347 20.8428 123.729 20.6168 123.057 20.6168V22.6168C123.255 22.6168 123.361 22.6712 123.449 22.7563C123.561 22.8645 123.711 23.0934 123.828 23.5492L125.765 23.0484ZM123.057 20.6168C122.294 20.6168 121.64 20.9379 121.148 21.5056C120.687 22.0382 120.392 22.7558 120.199 23.5585L122.144 24.0252C122.299 23.3779 122.493 23.008 122.66 22.8155C122.796 22.6583 122.91 22.6168 123.057 22.6168V20.6168ZM120.199 23.5585C119.828 25.1067 119.65 26.9294 119.65 29.0118H121.65C121.65 27.0343 121.82 25.3769 122.144 24.0252L120.199 23.5585ZM119.65 29.0118C119.65 31.5651 119.845 33.6777 120.26 35.3183L122.199 34.8274C121.841 33.4132 121.65 31.4852 121.65 29.0118H119.65ZM120.261 35.3212C120.479 36.1715 120.825 36.9233 121.366 37.4719C121.934 38.0476 122.656 38.3348 123.463 38.3348V36.3348C123.167 36.3348 122.965 36.2451 122.789 36.0668C122.587 35.8614 122.367 35.4821 122.198 34.8245L120.261 35.3212ZM123.463 38.3348C124.061 38.3348 124.622 38.1531 125.092 37.7656C125.546 37.3911 125.851 36.8774 126.056 36.312L124.175 35.6317C124.051 35.9749 123.916 36.1427 123.82 36.2225C123.739 36.2894 123.638 36.3348 123.463 36.3348V38.3348ZM126.058 36.3057C126.425 35.2708 126.65 34.0567 126.751 32.6812L124.756 32.5345C124.664 33.7883 124.464 34.8169 124.173 35.638L126.058 36.3057ZM125.658 33.6033L129.283 33.9513L129.474 31.9604L125.849 31.6124L125.658 33.6033ZM128.379 32.9558C128.379 34.2347 128.166 35.4065 127.75 36.4808L129.615 37.2028C130.127 35.8798 130.379 34.461 130.379 32.9558H128.379ZM127.752 36.4757C127.349 37.501 126.757 38.2959 125.984 38.8918L127.205 40.4758C128.288 39.6411 129.089 38.5414 129.613 37.208L127.752 36.4757ZM125.984 38.8918C125.255 39.4539 124.347 39.7568 123.202 39.7568V41.7568C124.724 41.7568 126.078 41.3444 127.205 40.4758L125.984 38.8918ZM141.659 30.8098L142.59 30.445L142.341 29.8098H141.659V30.8098ZM140.006 30.8098V29.8098H139.006V30.8098H140.006ZM140.006 40.1768L140.088 41.1735L141.006 41.098V40.1768H140.006ZM135.772 40.5248H134.772V41.6104L135.854 41.5215L135.772 40.5248ZM135.772 18.7748L135.738 17.7754L134.772 17.808V18.7748H135.772ZM140.934 18.6008V17.6008H140.917L140.9 17.6014L140.934 18.6008ZM146.792 20.1088L146.212 20.9234L146.219 20.9286L146.792 20.1088ZM148.097 27.9968L147.248 27.4685L147.244 27.4754L147.239 27.4823L148.097 27.9968ZM145.806 30.1718L145.306 29.3056L144.548 29.7428L144.881 30.552L145.806 30.1718ZM147.749 34.8988L146.824 35.279L146.827 35.2859L147.749 34.8988ZM149.721 39.5968L149.982 40.5621L151.085 40.2634L150.643 39.2098L149.721 39.5968ZM145.545 40.7278L144.614 41.0926L144.941 41.9274L145.806 41.6931L145.545 40.7278ZM143.805 27.0688L144.391 27.8788L144.396 27.8752L143.805 27.0688ZM140.006 21.9938V20.9938H139.006V21.9938H140.006ZM140.006 27.6778H139.006V28.6778H140.006V27.6778ZM141.659 29.8098H140.006V31.8098H141.659V29.8098ZM139.006 30.8098V40.1768H141.006V30.8098H139.006ZM139.924 39.1802L135.69 39.5282L135.854 41.5215L140.088 41.1735L139.924 39.1802ZM136.772 40.5248V18.7748H134.772V40.5248H136.772ZM135.806 19.7743L140.968 19.6003L140.9 17.6014L135.738 17.7754L135.806 19.7743ZM140.934 19.6008C143.308 19.6008 145.029 20.0811 146.212 20.9233L147.372 19.2943C145.732 18.1259 143.548 17.6008 140.934 17.6008V19.6008ZM146.219 20.9286C147.309 21.6902 147.909 22.8681 147.909 24.6618H149.909C149.909 22.3568 149.097 20.4994 147.365 19.2891L146.219 20.9286ZM147.909 24.6618C147.909 25.8869 147.664 26.8003 147.248 27.4685L148.946 28.5251C149.613 27.4533 149.909 26.1434 149.909 24.6618H147.909ZM147.239 27.4823C146.817 28.1868 146.186 28.7982 145.306 29.3056L146.306 31.038C147.437 30.3855 148.333 29.5469 148.954 28.5113L147.239 27.4823ZM144.881 30.552L146.824 35.279L148.674 34.5187L146.731 29.7917L144.881 30.552ZM146.827 35.2859L148.799 39.9839L150.643 39.2098L148.671 34.5118L146.827 35.2859ZM149.46 38.6316L145.284 39.7626L145.806 41.6931L149.982 40.5621L149.46 38.6316ZM146.476 40.363L142.59 30.445L140.728 31.1746L144.614 41.0926L146.476 40.363ZM141.456 28.6778C142.581 28.6778 143.599 28.4528 144.391 27.8788L143.218 26.2589C142.89 26.4968 142.342 26.6778 141.456 26.6778V28.6778ZM144.396 27.8752C145.359 27.1694 145.675 25.9723 145.675 24.6908H143.675C143.675 25.7293 143.411 26.1176 143.214 26.2624L144.396 27.8752ZM145.675 24.6908C145.675 23.6404 145.415 22.6683 144.719 21.9648C144.021 21.2593 143.053 20.9938 142.007 20.9938V22.9938C142.739 22.9938 143.106 23.1779 143.297 23.3714C143.49 23.5668 143.675 23.9433 143.675 24.6908H145.675ZM142.007 20.9938H140.006V22.9938H142.007V20.9938ZM139.006 21.9938V27.6778H141.006V21.9938H139.006ZM140.006 28.6778H141.456V26.6778H140.006V28.6778ZM153.822 40.3508L152.844 40.1423L152.587 41.3508H153.822V40.3508ZM158.404 18.8618L158.361 17.8628L157.588 17.8961L157.426 18.6533L158.404 18.8618ZM164.465 18.6008L165.443 18.3881L165.263 17.5655L164.422 17.6018L164.465 18.6008ZM169.163 40.1768L169.201 41.1761L170.395 41.1314L170.141 39.9641L169.163 40.1768ZM164.523 40.3508L163.537 40.5162L163.683 41.3831L164.561 41.3501L164.523 40.3508ZM163.74 35.6818L164.727 35.5164L164.587 34.6818H163.74V35.6818ZM158.549 35.6818V34.6818H157.729L157.569 35.4869L158.549 35.6818ZM157.621 40.3508V41.3508H158.442L158.602 40.5458L157.621 40.3508ZM159.332 32.2018L158.344 32.0477L158.164 33.2018H159.332V32.2018ZM162.957 32.2018V33.2018H164.168L163.939 32.0131L162.957 32.2018ZM160.956 21.7908L161.938 21.6021L159.968 21.6367L160.956 21.7908ZM154.8 40.5594L159.382 19.0704L157.426 18.6533L152.844 40.1423L154.8 40.5594ZM158.447 19.8609L164.508 19.5999L164.422 17.6018L158.361 17.8628L158.447 19.8609ZM163.488 18.8136L168.186 40.3896L170.141 39.9641L165.443 18.3881L163.488 18.8136ZM169.126 39.1775L164.486 39.3515L164.561 41.3501L169.201 41.1761L169.126 39.1775ZM165.51 40.1854L164.727 35.5164L162.754 35.8472L163.537 40.5162L165.51 40.1854ZM163.74 34.6818H158.549V36.6818H163.74V34.6818ZM157.569 35.4869L156.641 40.1559L158.602 40.5458L159.53 35.8768L157.569 35.4869ZM157.621 39.3508H153.822V41.3508H157.621V39.3508ZM159.332 33.2018H162.957V31.2018H159.332V33.2018ZM163.939 32.0131L161.938 21.6021L159.974 21.9796L161.975 32.3906L163.939 32.0131ZM159.968 21.6367L158.344 32.0477L160.32 32.356L161.944 21.945L159.968 21.6367ZM174.84 40.5248H173.84V41.6098L174.922 41.5215L174.84 40.5248ZM174.84 18.6008V17.6008H173.84V18.6008H174.84ZM185.889 18.6008L186.884 18.702L186.996 17.6008H185.889V18.6008ZM185.541 22.0228V23.0228H186.445L186.536 22.124L185.541 22.0228ZM179.103 22.0228V21.0228H178.103V22.0228H179.103ZM179.103 27.7068H178.103V28.7068H179.103V27.7068ZM183.656 27.7068H184.656V26.7068H183.656V27.7068ZM183.656 31.3028V32.3028H184.656V31.3028H183.656ZM179.103 31.3028V30.3028H178.103V31.3028H179.103ZM179.103 40.1768L179.185 41.1735L180.103 41.0985V40.1768H179.103ZM175.84 40.5248V18.6008H173.84V40.5248H175.84ZM174.84 19.6008H185.889V17.6008H174.84V19.6008ZM184.894 18.4997L184.546 21.9217L186.536 22.124L186.884 18.702L184.894 18.4997ZM185.541 21.0228H179.103V23.0228H185.541V21.0228ZM178.103 22.0228V27.7068H180.103V22.0228H178.103ZM179.103 28.7068H183.656V26.7068H179.103V28.7068ZM182.656 27.7068V31.3028H184.656V27.7068H182.656ZM183.656 30.3028H179.103V32.3028H183.656V30.3028ZM178.103 31.3028V40.1768H180.103V31.3028H178.103ZM179.022 39.1801L174.759 39.5281L174.922 41.5215L179.185 41.1735L179.022 39.1801ZM194.327 40.5248H193.327V41.6104L194.409 41.5215L194.327 40.5248ZM194.327 21.9938H195.327V20.9938H194.327V21.9938ZM189.89 21.9938L188.895 21.9002L188.792 22.9938H189.89V21.9938ZM190.209 18.6008V17.6008H189.299L189.214 18.5072L190.209 18.6008ZM202.969 18.6008L203.964 18.7029L204.077 17.6008H202.969V18.6008ZM202.621 21.9938V22.9938H203.524L203.616 22.0959L202.621 21.9938ZM198.561 21.9938V20.9938H197.561V21.9938H198.561ZM198.561 40.1768L198.643 41.1735L199.561 41.098V40.1768H198.561ZM195.327 40.5248V21.9938H193.327V40.5248H195.327ZM194.327 20.9938H189.89V22.9938H194.327V20.9938ZM190.886 22.0874L191.205 18.6944L189.214 18.5072L188.895 21.9002L190.886 22.0874ZM190.209 19.6008H202.969V17.6008H190.209V19.6008ZM201.974 18.4988L201.626 21.8918L203.616 22.0959L203.964 18.7029L201.974 18.4988ZM202.621 20.9938H198.561V22.9938H202.621V20.9938ZM197.561 21.9938V40.1768H199.561V21.9938H197.561ZM198.479 39.1802L194.245 39.5282L194.409 41.5215L198.643 41.1735L198.479 39.1802Z" fill="#fff"/>
<mask id="path-3-inside-1_92_36" fill="white">
<path d="M227.879 13.4523V2.24197C227.879 1.62278 227.377 1.12099 226.758 1.12099H223.395C223.395 0.501804 222.893 1.53951e-05 222.274 1.53951e-05H213.306C212.686 1.53951e-05 212.185 0.501938 212.185 1.12099H208.822C208.202 1.12099 207.701 1.62292 207.701 2.24197V13.4523C207.081 13.4523 206.58 13.9542 206.58 14.5733V29.1469C206.58 29.2587 206.596 29.3699 206.629 29.4766L206.973 30.5931C206.974 30.5982 206.976 30.6033 206.977 30.6082L208.351 35.0713C208.353 35.08 208.356 35.0888 208.359 35.0974L211.113 44.0498C211.258 44.5202 211.692 44.8412 212.185 44.8412H214.427V53.8096C214.427 57.5172 211.408 60.5358 207.7 60.5358L21.2995 60.5358C17.5888 60.5358 14.5733 57.5284 14.5733 53.8241V44.8412H16.8154C17.3075 44.8412 17.7421 44.5202 17.8868 44.0498L20.6408 35.0992C20.6442 35.0892 20.6471 35.079 20.6502 35.0689L22.371 29.4763C22.4038 29.3694 22.4205 29.2583 22.4205 29.1467V14.5734C22.4205 13.9542 21.9186 13.4524 21.2995 13.4524V2.24196C21.2995 1.62277 20.7976 1.12098 20.1786 1.12098H16.8155C16.8155 0.501789 16.3136 0 15.6945 0H6.72601C6.10682 0 5.60503 0.501922 5.60503 1.12098H2.24196C1.62277 1.12098 1.12098 1.6229 1.12098 2.24196V13.4523C0.501789 13.4523 0 13.9542 0 14.5733V29.1469C0 29.2587 0.0166949 29.3698 0.049551 29.4766L0.393204 30.5933C0.394673 30.5982 0.396143 30.6031 0.397745 30.6081L1.77102 35.0713C1.77356 35.08 1.77623 35.0888 1.77903 35.0973L4.5336 44.0498C4.67838 44.5202 5.11299 44.8412 5.60503 44.8412H7.84712V53.8241C7.84712 61.2399 13.879 67.2619 21.2995 67.2619L207.7 67.262C215.119 67.262 221.153 61.2277 221.153 53.8096V44.8412H223.395C223.887 44.8412 224.322 44.5202 224.466 44.0498L227.22 35.0992C227.224 35.0892 227.227 35.0791 227.23 35.0689L228.95 29.4763C228.983 29.3695 229 29.2583 229 29.1467V14.5734C229 13.9542 228.498 13.4523 227.879 13.4523ZM225.637 3.36295V13.4523H223.395H221.153V11.2102H222.274C222.893 11.2102 223.395 10.7083 223.395 10.0892V3.36295H225.637ZM215.548 15.6944H220.032H222.133C221.635 17.6288 219.88 19.0575 217.79 19.0575C215.7 19.0575 213.944 17.6288 213.447 15.6944H215.548ZM221.153 2.24197V8.96825H220.032C219.413 8.96825 218.911 9.47017 218.911 10.0892V13.4523H216.669V10.0892C216.669 9.47004 216.167 8.96825 215.548 8.96825H214.427V2.24197H221.153ZM209.942 3.36295H212.185V10.0892C212.185 10.7084 212.686 11.2102 213.305 11.2102H214.426V13.4523H212.184H209.942L209.942 3.36295ZM19.0574 3.36294V13.4523H16.8154H14.5733V11.2102H15.6942C16.3134 11.2102 16.8152 10.7083 16.8152 10.0892V3.36294H19.0574ZM8.9681 15.6944H13.4523H15.5532C15.0556 17.6287 13.3003 19.0574 11.2102 19.0574C9.12009 19.0574 7.36483 17.6287 6.86718 15.6944H8.9681ZM14.5734 2.24196V8.96823H13.4524C12.8332 8.96823 12.3314 9.47015 12.3314 10.0892V13.4523H10.0893V10.0892C10.0893 9.47002 9.58742 8.96823 8.96837 8.96823H7.84739V2.24196H14.5734ZM3.36294 3.36294H5.60503V10.0892C5.60503 10.7084 6.10695 11.2102 6.72601 11.2102H7.84699V13.4523H5.60503H3.36294V3.36294ZM5.74313 40.3572H7.84659C8.46578 40.3572 8.96756 39.8553 8.96756 39.2363C8.96756 38.6172 8.46564 38.1153 7.84659 38.1153H5.05329L4.36344 35.8732H7.84725C8.46644 35.8732 8.96823 35.3713 8.96823 34.7522C8.96823 34.133 8.46631 33.6312 7.84725 33.6312H3.67347L2.98362 31.3891H7.84659C8.46578 31.3891 8.96756 30.8872 8.96756 30.2682C8.96756 29.6491 8.46564 29.1472 7.84659 29.1472H2.29378L2.24196 28.9786V26.9051H7.84712C8.46631 26.9051 8.9681 26.4032 8.9681 25.7841C8.9681 25.1649 8.46618 24.6631 7.84712 24.6631H2.24196V15.6948H4.57874C5.11246 18.8761 7.8769 21.2999 11.2102 21.2999C14.5435 21.2999 17.3079 18.8761 17.8416 15.6948H20.1784V24.6631H14.5733C13.9541 24.6631 13.4523 25.1651 13.4523 25.7841C13.4523 26.4033 13.9542 26.9051 14.5733 26.9051H20.1784V28.9786L20.1266 29.1472H14.5733C13.9541 29.1472 13.4523 29.6491 13.4523 30.2682C13.4523 30.8872 13.9542 31.3891 14.5733 31.3891H19.4368L18.7469 33.6312H14.5733C13.9541 33.6312 13.4523 34.1332 13.4523 34.7522C13.4523 35.3714 13.9542 35.8732 14.5733 35.8732H18.0569L17.3671 38.1153H14.5733C13.9541 38.1153 13.4523 38.6172 13.4523 39.2363C13.4523 39.8553 13.9542 40.3572 14.5733 40.3572H16.6773L15.9874 42.5993H13.4523H8.9681H6.43297L5.74313 40.3572ZM218.911 53.8097C218.911 59.9897 213.88 65.02 207.7 65.02L21.2995 65.02C15.1165 65.02 10.0892 60.001 10.0892 53.8242V44.8413H12.3313V53.8242C12.3313 58.7681 16.3519 62.7779 21.2997 62.7779L207.7 62.7779C212.646 62.7779 216.669 58.7556 216.669 53.8096V44.8412H218.911L218.911 53.8097ZM220.032 42.5994H215.548H213.012L212.323 40.3573H214.426C215.045 40.3573 215.547 39.8553 215.547 39.2363C215.547 38.6172 215.045 38.1153 214.426 38.1153H211.633L210.943 35.8732H214.427C215.046 35.8732 215.548 35.3713 215.548 34.7522C215.548 34.133 215.046 33.6313 214.427 33.6313H210.253L209.563 31.3892H214.426C215.045 31.3892 215.547 30.8872 215.547 30.2682C215.547 29.6491 215.045 29.1472 214.426 29.1472H208.873L208.821 28.9787V26.9051H214.427C215.046 26.9051 215.548 26.4032 215.548 25.7841C215.548 25.1649 215.046 24.6632 214.427 24.6632H208.821V15.6948H211.158C211.692 18.8761 214.456 21.3 217.79 21.3C221.123 21.3 223.887 18.8761 224.421 15.6948H226.758V24.6632H221.153C220.534 24.6632 220.032 25.1651 220.032 25.7841C220.032 26.4033 220.534 26.9051 221.153 26.9051H226.758V28.9787L226.706 29.1472H221.153C220.534 29.1472 220.032 29.6491 220.032 30.2682C220.032 30.8872 220.534 31.3892 221.153 31.3892H226.016L225.326 33.6313H221.153C220.534 33.6313 220.032 34.1332 220.032 34.7522C220.032 35.3714 220.534 35.8732 221.153 35.8732H224.636L223.947 38.1153H221.153C220.534 38.1153 220.032 38.6172 220.032 39.2363C220.032 39.8553 220.534 40.3573 221.153 40.3573H223.257L222.567 42.5994H220.032Z"/>
</mask>
<path d="M227.879 13.4523V2.24197C227.879 1.62278 227.377 1.12099 226.758 1.12099H223.395C223.395 0.501804 222.893 1.53951e-05 222.274 1.53951e-05H213.306C212.686 1.53951e-05 212.185 0.501938 212.185 1.12099H208.822C208.202 1.12099 207.701 1.62292 207.701 2.24197V13.4523C207.081 13.4523 206.58 13.9542 206.58 14.5733V29.1469C206.58 29.2587 206.596 29.3699 206.629 29.4766L206.973 30.5931C206.974 30.5982 206.976 30.6033 206.977 30.6082L208.351 35.0713C208.353 35.08 208.356 35.0888 208.359 35.0974L211.113 44.0498C211.258 44.5202 211.692 44.8412 212.185 44.8412H214.427V53.8096C214.427 57.5172 211.408 60.5358 207.7 60.5358L21.2995 60.5358C17.5888 60.5358 14.5733 57.5284 14.5733 53.8241V44.8412H16.8154C17.3075 44.8412 17.7421 44.5202 17.8868 44.0498L20.6408 35.0992C20.6442 35.0892 20.6471 35.079 20.6502 35.0689L22.371 29.4763C22.4038 29.3694 22.4205 29.2583 22.4205 29.1467V14.5734C22.4205 13.9542 21.9186 13.4524 21.2995 13.4524V2.24196C21.2995 1.62277 20.7976 1.12098 20.1786 1.12098H16.8155C16.8155 0.501789 16.3136 0 15.6945 0H6.72601C6.10682 0 5.60503 0.501922 5.60503 1.12098H2.24196C1.62277 1.12098 1.12098 1.6229 1.12098 2.24196V13.4523C0.501789 13.4523 0 13.9542 0 14.5733V29.1469C0 29.2587 0.0166949 29.3698 0.049551 29.4766L0.393204 30.5933C0.394673 30.5982 0.396143 30.6031 0.397745 30.6081L1.77102 35.0713C1.77356 35.08 1.77623 35.0888 1.77903 35.0973L4.5336 44.0498C4.67838 44.5202 5.11299 44.8412 5.60503 44.8412H7.84712V53.8241C7.84712 61.2399 13.879 67.2619 21.2995 67.2619L207.7 67.262C215.119 67.262 221.153 61.2277 221.153 53.8096V44.8412H223.395C223.887 44.8412 224.322 44.5202 224.466 44.0498L227.22 35.0992C227.224 35.0892 227.227 35.0791 227.23 35.0689L228.95 29.4763C228.983 29.3695 229 29.2583 229 29.1467V14.5734C229 13.9542 228.498 13.4523 227.879 13.4523ZM225.637 3.36295V13.4523H223.395H221.153V11.2102H222.274C222.893 11.2102 223.395 10.7083 223.395 10.0892V3.36295H225.637ZM215.548 15.6944H220.032H222.133C221.635 17.6288 219.88 19.0575 217.79 19.0575C215.7 19.0575 213.944 17.6288 213.447 15.6944H215.548ZM221.153 2.24197V8.96825H220.032C219.413 8.96825 218.911 9.47017 218.911 10.0892V13.4523H216.669V10.0892C216.669 9.47004 216.167 8.96825 215.548 8.96825H214.427V2.24197H221.153ZM209.942 3.36295H212.185V10.0892C212.185 10.7084 212.686 11.2102 213.305 11.2102H214.426V13.4523H212.184H209.942L209.942 3.36295ZM19.0574 3.36294V13.4523H16.8154H14.5733V11.2102H15.6942C16.3134 11.2102 16.8152 10.7083 16.8152 10.0892V3.36294H19.0574ZM8.9681 15.6944H13.4523H15.5532C15.0556 17.6287 13.3003 19.0574 11.2102 19.0574C9.12009 19.0574 7.36483 17.6287 6.86718 15.6944H8.9681ZM14.5734 2.24196V8.96823H13.4524C12.8332 8.96823 12.3314 9.47015 12.3314 10.0892V13.4523H10.0893V10.0892C10.0893 9.47002 9.58742 8.96823 8.96837 8.96823H7.84739V2.24196H14.5734ZM3.36294 3.36294H5.60503V10.0892C5.60503 10.7084 6.10695 11.2102 6.72601 11.2102H7.84699V13.4523H5.60503H3.36294V3.36294ZM5.74313 40.3572H7.84659C8.46578 40.3572 8.96756 39.8553 8.96756 39.2363C8.96756 38.6172 8.46564 38.1153 7.84659 38.1153H5.05329L4.36344 35.8732H7.84725C8.46644 35.8732 8.96823 35.3713 8.96823 34.7522C8.96823 34.133 8.46631 33.6312 7.84725 33.6312H3.67347L2.98362 31.3891H7.84659C8.46578 31.3891 8.96756 30.8872 8.96756 30.2682C8.96756 29.6491 8.46564 29.1472 7.84659 29.1472H2.29378L2.24196 28.9786V26.9051H7.84712C8.46631 26.9051 8.9681 26.4032 8.9681 25.7841C8.9681 25.1649 8.46618 24.6631 7.84712 24.6631H2.24196V15.6948H4.57874C5.11246 18.8761 7.8769 21.2999 11.2102 21.2999C14.5435 21.2999 17.3079 18.8761 17.8416 15.6948H20.1784V24.6631H14.5733C13.9541 24.6631 13.4523 25.1651 13.4523 25.7841C13.4523 26.4033 13.9542 26.9051 14.5733 26.9051H20.1784V28.9786L20.1266 29.1472H14.5733C13.9541 29.1472 13.4523 29.6491 13.4523 30.2682C13.4523 30.8872 13.9542 31.3891 14.5733 31.3891H19.4368L18.7469 33.6312H14.5733C13.9541 33.6312 13.4523 34.1332 13.4523 34.7522C13.4523 35.3714 13.9542 35.8732 14.5733 35.8732H18.0569L17.3671 38.1153H14.5733C13.9541 38.1153 13.4523 38.6172 13.4523 39.2363C13.4523 39.8553 13.9542 40.3572 14.5733 40.3572H16.6773L15.9874 42.5993H13.4523H8.9681H6.43297L5.74313 40.3572ZM218.911 53.8097C218.911 59.9897 213.88 65.02 207.7 65.02L21.2995 65.02C15.1165 65.02 10.0892 60.001 10.0892 53.8242V44.8413H12.3313V53.8242C12.3313 58.7681 16.3519 62.7779 21.2997 62.7779L207.7 62.7779C212.646 62.7779 216.669 58.7556 216.669 53.8096V44.8412H218.911L218.911 53.8097ZM220.032 42.5994H215.548H213.012L212.323 40.3573H214.426C215.045 40.3573 215.547 39.8553 215.547 39.2363C215.547 38.6172 215.045 38.1153 214.426 38.1153H211.633L210.943 35.8732H214.427C215.046 35.8732 215.548 35.3713 215.548 34.7522C215.548 34.133 215.046 33.6313 214.427 33.6313H210.253L209.563 31.3892H214.426C215.045 31.3892 215.547 30.8872 215.547 30.2682C215.547 29.6491 215.045 29.1472 214.426 29.1472H208.873L208.821 28.9787V26.9051H214.427C215.046 26.9051 215.548 26.4032 215.548 25.7841C215.548 25.1649 215.046 24.6632 214.427 24.6632H208.821V15.6948H211.158C211.692 18.8761 214.456 21.3 217.79 21.3C221.123 21.3 223.887 18.8761 224.421 15.6948H226.758V24.6632H221.153C220.534 24.6632 220.032 25.1651 220.032 25.7841C220.032 26.4033 220.534 26.9051 221.153 26.9051H226.758V28.9787L226.706 29.1472H221.153C220.534 29.1472 220.032 29.6491 220.032 30.2682C220.032 30.8872 220.534 31.3892 221.153 31.3892H226.016L225.326 33.6313H221.153C220.534 33.6313 220.032 34.1332 220.032 34.7522C220.032 35.3714 220.534 35.8732 221.153 35.8732H224.636L223.947 38.1153H221.153C220.534 38.1153 220.032 38.6172 220.032 39.2363C220.032 39.8553 220.534 40.3573 221.153 40.3573H223.257L222.567 42.5994H220.032Z" stroke="#fff" stroke-width="10" mask="url(#path-3-inside-1_92_36)"/>
</svg>
